<svg width="54" height="54" viewBox="0 0 54 54" fill="none" xmlns="http://www.w3.org/2000/svg">
<path d="M37.125 22.5V38.25M37.125 18C36.8266 18 36.5405 17.8815 36.3295 17.6705C36.1185 17.4595 36 17.1734 36 16.875C36 16.5766 36.1185 16.2905 36.3295 16.0795C36.5405 15.8685 36.8266 15.75 37.125 15.75C37.4234 15.75 37.7095 15.8685 37.9205 16.0795C38.1315 16.2905 38.25 16.5766 38.25 16.875C38.25 17.1734 38.1315 17.4595 37.9205 17.6705C37.7095 17.8815 37.4234 18 37.125 18Z" stroke="#601F1F" stroke-linejoin="round"/>
<path d="M3.375 10.125C3.375 8.33479 4.08616 6.6179 5.35203 5.35203C6.6179 4.08616 8.33479 3.375 10.125 3.375H43.875C45.6652 3.375 47.3821 4.08616 48.648 5.35203C49.9138 6.6179 50.625 8.33479 50.625 10.125V43.875C50.625 45.6652 49.9138 47.3821 48.648 48.648C47.3821 49.9138 45.6652 50.625 43.875 50.625H10.125C8.33479 50.625 6.6179 49.9138 5.35203 48.648C4.08616 47.3821 3.375 45.6652 3.375 43.875V10.125Z" stroke="#601F1F" stroke-linejoin="round"/>
<path d="M14.625 38.25L21.375 18H23.625L30.375 38.25M16.875 30.375H28.125" stroke="#601F1F" stroke-linejoin="round"/>
</svg>
