<svg width="65" height="65" viewBox="0 0 65 65" fill="none" xmlns="http://www.w3.org/2000/svg">
<path d="M56.875 18.9583V46.0417C56.875 48.9148 55.7336 51.6703 53.702 53.702C51.6703 55.7336 48.9148 56.875 46.0417 56.875H18.9583C16.0852 56.875 13.3297 55.7336 11.298 53.702C9.26637 51.6703 8.125 48.9148 8.125 46.0417V18.9583C8.125 16.0852 9.26637 13.3297 11.298 11.298C13.3297 9.26637 16.0852 8.125 18.9583 8.125H46.0417C48.9148 8.125 51.6703 9.26637 53.702 11.298C55.7336 13.3297 56.875 16.0852 56.875 18.9583Z" stroke="#601F1F" stroke-width="1.5" stroke-linecap="round" stroke-linejoin="round"/>
<path d="M37.9167 35.2083V32.5C37.9167 31.0634 38.4873 29.6856 39.5032 28.6698C40.519 27.654 41.8967 27.0833 43.3333 27.0833C44.7699 27.0833 46.1477 27.654 47.1635 28.6698C48.1793 29.6856 48.75 31.0634 48.75 32.5V35.2083H37.9167ZM37.9167 35.2083V37.9166C37.9167 39.3532 38.4873 40.731 39.5032 41.7468C40.519 42.7626 41.8967 43.3333 43.3333 43.3333H47.3958M16.25 43.3333L19.2969 35.2083M19.2969 35.2083L24.375 21.6666L29.4531 35.2083M19.2969 35.2083H29.4531M32.5 43.3333L29.4531 35.2083" stroke="#601F1F" stroke-width="1.5" stroke-linecap="round" stroke-linejoin="round"/>
</svg>
