<svg width="54" height="54" viewBox="0 0 54 54" fill="none" xmlns="http://www.w3.org/2000/svg">
<path d="M15.75 37.125V28.125M15.75 28.125V16.875H21.375C22.8668 16.875 24.2976 17.4676 25.3525 18.5225C26.4074 19.5774 27 21.0082 27 22.5C27 23.9918 26.4074 25.4226 25.3525 26.4775C24.2976 27.5324 22.8668 28.125 21.375 28.125H15.75ZM34.875 20.25V37.125M34.875 25.875C36.1057 23.3775 38.3917 21.375 42.75 21.375" stroke="#601F1F" stroke-linejoin="round"/>
<path d="M3.375 10.125C3.375 8.33479 4.08616 6.6179 5.35203 5.35203C6.6179 4.08616 8.33479 3.375 10.125 3.375H43.875C45.6652 3.375 47.3821 4.08616 48.648 5.35203C49.9138 6.6179 50.625 8.33479 50.625 10.125V43.875C50.625 45.6652 49.9138 47.3821 48.648 48.648C47.3821 49.9138 45.6652 50.625 43.875 50.625H10.125C8.33479 50.625 6.6179 49.9138 5.35203 48.648C4.08616 47.3821 3.375 45.6652 3.375 43.875V10.125Z" stroke="#601F1F" stroke-linejoin="round"/>
</svg>
