<svg width="63" height="63" viewBox="0 0 63 63" fill="none" xmlns="http://www.w3.org/2000/svg">
<path d="M6.5625 31.5C6.5625 19.7452 6.5625 13.8653 10.2139 10.2139C13.8653 6.5625 19.7426 6.5625 31.5 6.5625C43.2548 6.5625 49.1347 6.5625 52.7861 10.2139C56.4375 13.8653 56.4375 19.7426 56.4375 31.5C56.4375 43.2548 56.4375 49.1347 52.7861 52.7861C49.1347 56.4375 43.2574 56.4375 31.5 56.4375C19.7452 56.4375 13.8653 56.4375 10.2139 52.7861C6.5625 49.1347 6.5625 43.2574 6.5625 31.5Z" stroke="#601F1F" stroke-width="1.5" stroke-linejoin="round"/>
<path d="M17.0625 42V31.5M17.0625 31.5V23.9531C17.0625 23.6486 17.0625 23.4964 17.0756 23.3678C17.1352 22.7635 17.4025 22.1986 17.8318 21.7693C18.2611 21.34 18.826 21.0727 19.4302 21.0131C19.5589 21 19.7111 21 20.0156 21H23.625C25.0174 21 26.3527 21.5531 27.3373 22.5377C28.3219 23.5223 28.875 24.8576 28.875 26.25C28.875 27.6424 28.3219 28.9777 27.3373 29.9623C26.3527 30.9469 25.0174 31.5 23.625 31.5H17.0625Z" stroke="#601F1F" stroke-width="1.5" stroke-linecap="round" stroke-linejoin="round"/>
<path d="M45.8482 29.4604C45.3915 27.6334 43.2547 26.25 40.6875 26.25C37.7869 26.25 35.4375 28.014 35.4375 30.1875C35.4375 32.361 37.7869 34.125 40.6875 34.125C43.5881 34.125 45.9375 35.889 45.9375 38.0625C45.9375 40.236 43.5881 42 40.6875 42C38.1098 42 35.9677 40.6088 35.5215 38.7713" stroke="#601F1F" stroke-width="1.5" stroke-linecap="round"/>
</svg>
