<svg width="45" height="53" viewBox="0 0 45 53" fill="none" xmlns="http://www.w3.org/2000/svg">
<path d="M11.75 35C9.62385 35 7.54545 35.4985 5.77762 36.4325C4.0098 37.3665 2.63194 38.694 1.8183 40.2472C1.00466 41.8004 0.791772 43.5094 1.20656 45.1583C1.62135 46.8071 2.64519 48.3217 4.14861 49.5104C5.65202 50.6992 7.56749 51.5087 9.65278 51.8367C11.7381 52.1646 13.8995 51.9963 15.8638 51.353C17.8282 50.7096 19.5071 49.6202 20.6883 48.2223C21.8695 46.8245 22.5 45.1811 22.5 43.5V35M11.75 35H22.5M11.75 35C8.89893 35 6.16462 34.1045 4.14861 32.5104C2.13259 30.9163 1 28.7543 1 26.5C1 24.2457 2.13259 22.0837 4.14861 20.4896C6.16462 18.8955 8.89893 18 11.75 18M22.5 35V18M22.5 1H33.25C36.1011 1 38.8354 1.89553 40.8514 3.48959C42.8674 5.08365 44 7.24566 44 9.5C44 11.7543 42.8674 13.9163 40.8514 15.5104C38.8354 17.1045 36.1011 18 33.25 18H22.5M22.5 1V18M22.5 1H11.75C8.89893 1 6.16462 1.89553 4.14861 3.48959C2.13259 5.08365 1 7.24566 1 9.5C1 11.7543 2.13259 13.9163 4.14861 15.5104C6.16462 17.1045 8.89893 18 11.75 18M22.5 18H11.75" stroke="#601F1F" stroke-width="0.5" stroke-linecap="round" stroke-linejoin="round"/>
<path d="M32.5542 34.8827C38.4913 34.8827 43.3042 31.0771 43.3042 26.3827C43.3042 21.6883 38.4913 17.8827 32.5542 17.8827C26.6171 17.8827 21.8042 21.6883 21.8042 26.3827C21.8042 31.0771 26.6171 34.8827 32.5542 34.8827Z" stroke="#601F1F" stroke-width="0.5" stroke-linecap="round" stroke-linejoin="round"/>
</svg>
